# File created by Blade
# Date/Time:  Wed Apr 08 17:17:01 2015
# Frame Rate: 120.000 fps
#------------------------------------------------------
:FULLY-SPECIFIED
:DEGREES
1619
root 5.208789 35.975463 -2.081074 317.989565 -86.516922 -324.954526
Spine 10.811701 2.014214 -2.782271
Head 6.936963 14.749307 2.131980
LeftShoulder -6.952040 7.693923 28.792846
LeftArm 13.911173 -35.290007 -31.782422
LeftForeArm 28.611969 -0.000000 4.666452
LeftHand -11.049185 0.000000 -15.956368
LeftHandThumb1 -26.253704 0.000000 33.147579
RightShoulder -23.597803 -37.871602 -12.795715
RightArm 52.829835 49.743719 53.187238
RightForeArm 2.843028 -0.000000 -0.355445
RightHand -3.155289 0.000000 9.632514
RightHandThumb1 -24.326973 -0.000000 -32.862282
LeftUpLeg 12.681263 9.261363 7.035596
LeftLeg 4.654131 -0.000000 -0.000000
LeftFoot -10.403027 7.450576 -17.293323
LeftToeBase 7.226685 -0.000000 -0.000000
RightUpLeg 15.760990 -13.227907 -10.879162
RightLeg 2.812330 -0.000000 -0.000000
RightFoot -12.754452 -1.268427 19.190448
RightToeBase 10.838810 -0.000000 -0.000000
1620
root 5.207448 35.974795 -2.041286 316.479416 -86.542799 -323.449439
Spine 10.758956 1.952743 -2.776748
Head 6.906856 14.668692 2.154256
LeftShoulder -6.924024 7.709609 28.813637
LeftArm 13.855978 -35.313098 -31.843671
LeftForeArm 28.585087 -0.000000 4.531526
LeftHand -11.053098 0.000000 -16.179815
LeftHandThumb1 -26.253704 0.000000 33.147579
RightShoulder -23.569364 -37.874123 -12.822030
RightArm 52.824775 49.767303 53.020500
RightForeArm 2.668819 -0.000000 -0.481092
RightHand -3.123444 -0.000000 9.604186
RightHandThumb1 -24.326973 -0.000000 -32.862282
LeftUpLeg 12.731537 9.409416 6.953481
LeftLeg 4.627267 -0.000000 -0.000000
LeftFoot -10.400109 7.365028 -17.323994
LeftToeBase 7.227839 -0.000000 -0.000000
RightUpLeg 15.739764 -13.180182 -11.004175
RightLeg 2.833258 -0.000000 -0.000000
RightFoot -12.740093 -1.229589 19.198792
RightToeBase 10.858990 -0.000000 -0.000000
1621
root 5.204881 35.973589 -2.000030 314.782484 -86.564605 -321.774616
Spine 10.724974 1.904667 -2.770229
Head 6.873085 14.570423 2.145195
LeftShoulder -6.921272 7.738274 28.820876
LeftArm 13.881901 -35.375325 -31.958070
LeftForeArm 28.596111 0.000000 4.380079
LeftHand -11.099049 -0.000000 -16.026188
LeftHandThumb1 -26.253704 0.000000 33.147579
RightShoulder -23.545347 -37.816222 -12.905631
RightArm 52.742484 49.708405 52.814671
RightForeArm 2.567083 -0.000000 -0.600165
RightHand -3.062734 -0.000000 9.562649
RightHandThumb1 -24.326973 -0.000000 -32.862282
LeftUpLeg 12.793302 9.538052 6.857732
LeftLeg 4.620122 -0.000000 -0.000000
LeftFoot -10.414729 7.298875 -17.343874
LeftToeBase 7.207694 -0.000000 -0.000000
RightUpLeg 15.740972 -13.140685 -11.149792
RightLeg 2.851520 -0.000000 -0.000000
RightFoot -12.727896 -1.168666 19.214798
RightToeBase 10.871997 -0.000000 -0.000000
1622
root 5.202939 35.972332 -1.960058 313.208300 -86.582118 -320.212524
Spine 10.682962 1.856020 -2.767769
Head 6.840235 14.445532 2.155353
LeftShoulder -6.896771 7.766857 28.841488
LeftArm 13.872855 -35.500978 -32.078573
LeftForeArm 28.642125 -0.000000 4.243559
LeftHand -11.078045 -0.000000 -16.021480
LeftHandThumb1 -26.253704 0.000000 33.147579
RightShoulder -23.506281 -37.835769 -12.957419
RightArm 52.695994 49.714731 52.649750
RightForeArm 2.504212 -0.000000 -0.720141
RightHand -3.107730 -0.000000 9.466034
RightHandThumb1 -24.326973 -0.000000 -32.862282
LeftUpLeg 12.831366 9.633037 6.755798
LeftLeg 4.628113 -0.000000 -0.000000
LeftFoot -10.443321 7.269996 -17.351087
LeftToeBase 7.191955 -0.000000 -0.000000
RightUpLeg 15.731909 -13.085420 -11.280428
RightLeg 2.869295 -0.000000 -0.000000
RightFoot -12.720777 -1.105633 19.272079
RightToeBase 10.921467 -0.000000 -0.000000
1623
root 5.200643 35.971466 -1.920859 311.534481 -86.601727 -318.566136
Spine 10.669008 1.831867 -2.773487
Head 6.773923 14.305020 2.213880
LeftShoulder -6.878798 7.762738 28.856478
LeftArm 13.875259 -35.634327 -32.191902
LeftForeArm 28.855340 -0.000000 4.127634
LeftHand -11.128438 -0.000000 -16.014424
LeftHandThumb1 -26.253704 0.000000 33.147579
RightShoulder -23.483335 -37.885945 -12.968010
RightArm 52.577102 49.734075 52.434125
RightForeArm 2.491124 -0.000000 -0.761773
RightHand -3.079402 -0.000000 9.472838
RightHandThumb1 -24.326973 -0.000000 -32.862282
LeftUpLeg 12.877478 9.700765 6.651190
LeftLeg 4.649162 -0.000000 -0.000000
LeftFoot -10.479638 7.262974 -17.385996
LeftToeBase 7.169763 -0.000000 -0.000000
RightUpLeg 15.734089 -13.023631 -11.411110
RightLeg 2.890129 -0.000000 -0.000000
RightFoot -12.711239 -1.061100 19.301390
RightToeBase 10.924316 -0.000000 -0.000000
1624
root 5.197876 35.970566 -1.881923 309.813807 -86.609380 -316.873223
Spine 10.656326 1.794514 -2.784126
Head 6.695173 14.138250 2.209070
LeftShoulder -6.870812 7.757255 28.857367
LeftArm 13.860867 -35.814750 -32.299292
LeftForeArm 28.903633 -0.000000 4.051187
LeftHand -10.989454 0.000000 -16.379758
LeftHandThumb1 -26.253704 0.000000 33.147579
RightShoulder -23.466976 -37.889131 -12.997972
RightArm 52.514174 49.745187 52.274113
RightForeArm 2.435930 -0.000000 -0.843282
RightHand -3.083782 0.000000 9.453718
RightHandThumb1 -24.326973 -0.000000 -32.862282
LeftUpLeg 12.918610 9.794095 6.545427
LeftLeg 4.682784 -0.000000 -0.000000
LeftFoot -10.505876 7.234632 -17.397448
LeftToeBase 7.134156 -0.000000 -0.000000
RightUpLeg 15.735533 -12.960734 -11.547137
RightLeg 2.917332 -0.000000 -0.000000
RightFoot -12.713268 -1.030420 19.307223
RightToeBase 10.951738 -0.000000 -0.000000
